# xmcd
#
# Track frame offsets: 
#        150
#        12517
#        26156
#        38846
#        52816
#        64525
#        76918
#        88053
#        101476
#        116218
#        126682
#        138766
#        150762
#        164826
#        179918
#        192042
#        202841
#        214656
#        225434
#        237945
#
# Disc length: 3328 seconds
#
# Revision: 1
# Processed by: cddbd v1.5.2PL0 Copyright (c) Steve Scherf et al.
# Submitted via: ExactAudioCopy v1.0b3
#
DISCID=0c0cfe14
DTITLE=Various Artist - Western Swing - 40 Bootstompers From The Golden Age [
DTITLE=Disc 1]
DYEAR=2006
DGENRE=Country
TTITLE0=Brown, Milton and His Musical Brownies - Oh, You Pretty Woman
TTITLE1=Wills, Bob and His Texas Playboys - Osage Stomp
TTITLE2=Boyd, Bill and His Cowboy Ramblers - Barn Dance Rag
TTITLE3=Montana, Patsy - I Want To Be A Cowboy's Sweetheart
TTITLE4=Tune Wranglers - Up Jumped The Devil
TTITLE5=Wills, Bob and His Texas Playboys - Steel Guitar Rag
TTITLE6=Revard, Jimmy and His Oklahoma Playboys - Dirty Dog
TTITLE7=Brown, Milton and His Musical Brownies - Who's Sorry Now?
TTITLE8=Cliff Bruner's Texas Wanderers - Corrine Corrina
TTITLE9=O'Daniel, W. Lee and His Hillbilly Boys - Dirty Hangover Blues
TTITLE10=Nite Owls - Married Man Blues
TTITLE11=Alley, Shelly Lee and His Alley Cats - Women Women Women
TTITLE12=Brown, Milton and His Musical Brownies - Eyes Of Texas
TTITLE13=Brown, Milton and His Musical Brownies - The Yellow Rose Of Tex
TTITLE13=as
TTITLE14=O'Daniel, W. Lee and His Hillbilly Boys - There'll Be Some Chan
TTITLE14=ges Made
TTITLE15=Hofner, Adolph - It's Best To Behave
TTITLE16=Boyd, Bill and His Cowboy Ramblers - Drink The Barrel Dry
TTITLE17=Light Crust Doughboys - Pussy Pussy Pussy
TTITLE18=Light Crust Doughboys - Mean Mean Mama (From Mena)
TTITLE19=Wills, Bob and His Texas Playboys - New San Antonio Rose
EXTD=
EXTT0=
EXTT1=
EXTT2=
EXTT3=
EXTT4=
EXTT5=
EXTT6=
EXTT7=
EXTT8=
EXTT9=
EXTT10=
EXTT11=
EXTT12=
EXTT13=
EXTT14=
EXTT15=
EXTT16=
EXTT17=
EXTT18=
EXTT19=
PLAYORDER=
